<?xml version="1.0" standalone="no"?>
<!DOCTYPE svg PUBLIC "-//W3C//DTD SVG 20010904//EN"
 "http://www.w3.org/TR/2001/REC-SVG-20010904/DTD/svg10.dtd">
<svg version="1.0" xmlns="http://www.w3.org/2000/svg"
 width="400.000000pt" height="400.000000pt" viewBox="0 0 400.000000 400.000000"
 preserveAspectRatio="xMidYMid meet">
<metadata>
Created by potrace 1.11, written by Peter Selinger 2001-2013
</metadata>
<g transform="translate(0.000000,400.000000) scale(0.100000,-0.100000)"
fill="#000000" stroke="none">
<path d="M0 3320 c0 -447 3 -680 10 -680 6 0 10 5 10 11 0 14 62 75 72 71 5
-1 8 2 8 6 0 17 48 64 58 58 6 -3 13 -2 17 4 4 6 11 7 17 4 7 -4 8 -2 4 4 -4
6 -14 8 -24 5 -16 -6 -16 -5 -2 13 14 17 123 142 189 218 15 16 19 26 11 22
-8 -4 -5 1 8 11 13 10 24 27 26 37 1 10 7 21 12 24 5 4 10 14 12 22 3 11 -1
11 -16 -3 -10 -9 -24 -17 -32 -17 -10 0 -10 -3 0 -15 10 -13 11 -18 1 -28 -10
-9 -11 -8 -5 7 5 13 4 17 -3 13 -6 -4 -14 0 -17 9 -8 22 -8 24 8 24 8 0 16 7
20 15 7 18 -5 20 -23 3 -11 -11 -13 -10 -8 5 4 11 1 17 -8 17 -9 0 -12 -6 -9
-15 5 -11 2 -13 -10 -9 -9 4 -14 9 -12 12 3 3 1 11 -5 18 -8 9 -5 11 11 7 16
-4 19 -2 14 11 -3 9 -10 16 -16 16 -5 0 -3 7 5 15 16 15 12 55 -6 67 -15 9
-38 -2 -30 -16 3 -6 2 -7 -2 -3 -16 14 -12 32 13 57 13 14 22 19 18 13 -5 -9
-2 -11 8 -7 9 3 16 12 16 20 0 10 -6 11 -25 4 -20 -8 -27 -6 -30 5 -3 8 -7 22
-9 29 -3 9 0 13 7 10 8 -3 12 5 11 23 -1 17 -7 28 -15 27 -9 -1 -15 11 -16 34
-2 32 -1 33 12 16 8 -11 15 -14 15 -8 0 6 -7 17 -15 24 -8 7 -12 16 -9 21 3 5
2 9 -3 8 -20 -3 -27 2 -13 11 12 7 10 9 -8 7 -12 0 -22 -5 -22 -10 0 -23 -16
6 -18 32 -2 21 3 34 14 38 12 4 13 8 3 13 -6 5 -9 15 -6 25 4 9 11 13 17 10 6
-4 7 1 3 11 -6 15 -8 15 -25 -6 -18 -22 -22 -40 -18 -70 1 -8 -1 -12 -6 -8
-10 11 -11 60 -1 82 6 13 6 16 -2 12 -6 -4 -20 -1 -31 7 -21 14 -21 15 4 19
14 3 27 1 29 -5 1 -5 3 7 4 27 1 20 -3 36 -8 36 -5 0 -9 5 -9 11 0 14 -26 39
-34 32 -3 -3 2 -12 12 -19 15 -12 15 -13 1 -14 -18 0 -27 16 -35 67 -4 23 -1
33 8 33 7 0 3 7 -9 15 -14 10 -19 22 -16 35 3 13 -1 22 -12 26 -13 5 -14 9 -3
15 8 6 -5 9 -34 9 l-48 0 0 -680z m107 514 c-3 -4 -2 -16 4 -28 10 -20 9 -20
-5 -2 -14 17 -13 36 1 36 4 0 3 -3 0 -6z m67 -53 c8 -12 -3 -41 -15 -41 -4 0
-6 7 -3 15 4 8 1 15 -6 15 -6 0 -8 5 -5 10 8 12 22 13 29 1z m101 -341 c3 -5
-1 -10 -10 -10 -9 0 -13 5 -10 10 3 6 8 10 10 10 2 0 7 -4 10 -10z"/>
<path d="M133 3994 c3 -4 2 -15 -4 -25 -7 -14 -6 -17 4 -14 16 7 20 45 5 45
-6 0 -8 -3 -5 -6z"/>
<path d="M155 3870 c-3 -5 -1 -10 4 -10 6 0 11 5 11 10 0 6 -2 10 -4 10 -3 0
-8 -4 -11 -10z"/>
<path d="M295 3389 c-9 -14 -2 -20 14 -10 8 6 9 11 3 15 -6 3 -14 1 -17 -5z"/>
<path d="M296 3321 c-4 -5 1 -8 9 -7 21 3 31 16 12 16 -9 0 -18 -4 -21 -9z"/>
<path d="M336 3312 c-4 -7 -2 -12 4 -12 7 0 9 -8 5 -19 -4 -14 0 -23 15 -31
12 -6 24 -9 27 -6 3 3 -2 8 -11 12 -9 3 -16 10 -16 16 0 5 4 7 8 4 5 -3 9 1 9
9 0 8 -3 13 -5 10 -3 -3 -10 3 -17 12 -8 11 -14 13 -19 5z"/>
<path d="M344 3223 c3 -8 6 -18 6 -23 0 -4 7 -11 16 -14 14 -6 15 -4 4 10 -11
12 -11 17 -1 23 9 6 7 10 -9 14 -16 4 -20 2 -16 -10z"/>
<path d="M1885 2984 c-236 -35 -426 -128 -583 -286 -132 -131 -219 -284 -265
-468 -30 -121 -30 -339 0 -460 46 -184 133 -337 265 -468 131 -132 284 -219
468 -265 121 -30 339 -30 460 0 184 46 337 133 468 265 132 131 219 284 265
468 30 121 30 339 0 460 -92 364 -369 643 -728 731 -78 19 -285 33 -350 23z
m343 -173 c288 -83 506 -306 588 -601 14 -49 18 -101 18 -210 0 -109 -4 -161
-18 -210 -83 -301 -305 -523 -606 -606 -92 -26 -328 -26 -420 0 -301 83 -523
305 -606 606 -26 92 -26 328 0 420 42 154 111 273 222 384 131 130 288 210
469 240 70 11 281 -3 353 -23z"/>
<path d="M1937 2524 c-4 -4 -7 -28 -7 -53 0 -25 -4 -51 -8 -57 -4 -5 -29 -18
-57 -28 -62 -23 -139 -99 -148 -146 -20 -98 5 -188 65 -233 45 -34 92 -54 213
-88 133 -37 164 -74 112 -135 -20 -23 -34 -28 -83 -31 -79 -6 -123 18 -144 76
l-14 41 -83 0 -83 0 0 -40 c0 -97 71 -183 183 -219 39 -13 45 -24 49 -96 l3
-40 65 0 65 0 5 59 c5 59 5 59 45 71 61 18 99 41 133 79 77 88 68 250 -19 319
-20 16 -86 44 -159 67 -140 45 -182 71 -182 114 0 35 20 55 66 66 72 16 109
-2 177 -88 7 -9 32 -12 77 -10 66 3 67 3 70 33 9 78 -44 150 -145 196 l-62 29
-3 57 -3 58 -60 3 c-34 2 -64 0 -68 -4z"/>
<path d="M1080 2841 c0 -5 -8 -7 -18 -4 -15 4 -619 -119 -723 -147 -48 -13
-70 -13 -49 -1 8 6 18 7 22 5 4 -3 5 2 2 10 -7 19 -9 19 -35 6 -15 -8 -21 -7
-25 4 -3 8 -12 12 -21 9 -13 -5 -13 -7 1 -15 9 -5 16 -14 16 -21 0 -8 -4 -7
-9 2 -8 12 -12 12 -25 2 -9 -7 -14 -17 -11 -21 3 -4 -6 -10 -20 -12 -14 -3
-25 -1 -25 3 0 5 7 9 15 9 8 0 15 7 15 16 0 9 5 12 12 8 6 -4 8 -3 4 4 -10 17
46 52 67 41 11 -7 17 -6 17 1 0 5 -7 11 -15 11 -8 1 -21 2 -27 3 -7 1 -18 -2
-25 -6 -6 -5 -19 -8 -29 -6 -9 2 -19 -3 -21 -9 -3 -7 0 -13 6 -13 6 0 11 -5
11 -11 0 -6 -7 -9 -15 -5 -8 3 -15 1 -15 -4 0 -6 6 -10 13 -10 8 0 7 -4 -3
-10 -22 -14 -33 -12 -26 5 3 8 0 15 -7 15 -7 0 -3 8 8 17 15 12 16 14 3 10 -9
-3 -19 -1 -22 6 -3 7 -3 -3 0 -22 3 -19 7 -38 10 -42 2 -4 0 -10 -6 -14 -5 -3
-10 -1 -10 6 0 6 -8 18 -17 25 -11 8 -13 13 -5 14 6 0 12 4 12 10 0 12 -22 9
-32 -4 -3 -5 -4 -23 -2 -41 3 -29 1 -32 -34 -41 l-37 -9 -3 -1307 -2 -1308
1451 0 c1156 0 1450 3 1446 13 -2 6 -9 11 -15 10 -5 -1 -8 7 -5 17 3 11 1 20
-5 20 -6 0 -14 9 -17 20 -4 11 -11 17 -17 14 -8 -5 -9 -1 -4 12 4 10 4 15 0
11 -4 -4 -13 -2 -21 4 -15 13 -18 33 -3 24 6 -3 7 1 4 10 -6 14 -8 14 -21 -2
-8 -10 -12 -12 -8 -5 3 6 2 12 -4 12 -17 0 -41 55 -30 69 6 8 6 8 -3 1 -16
-13 -31 -13 -23 0 3 6 -2 10 -12 11 -13 1 -11 3 7 9 l25 8 -24 1 c-32 1 -61
28 -54 49 4 8 2 13 -3 9 -6 -3 -15 3 -22 14 -10 16 -10 21 3 25 8 4 15 11 15
16 0 7 -5 7 -12 1 -7 -5 -19 -8 -25 -7 -7 1 -17 2 -23 3 -5 0 -10 7 -10 14 0
17 -33 44 -48 39 -7 -2 -10 2 -6 11 3 9 -3 21 -15 29 -12 8 -18 18 -14 21 3 4
1 7 -5 7 -5 0 -16 2 -24 5 -7 3 -24 -5 -38 -18 -14 -12 -47 -38 -75 -57 -50
-35 -70 -51 -107 -83 -23 -19 -32 -22 -23 -7 3 5 -8 8 -28 7 -27 -3 -33 0 -33
17 0 12 5 24 10 28 7 5 4 8 -7 8 -10 0 -16 4 -12 9 10 17 -12 21 -31 6 -16
-13 -17 -14 -1 -9 9 3 17 2 17 -3 0 -5 -13 -9 -30 -9 -28 0 -29 1 -13 18 9 10
13 19 10 19 -24 5 -33 3 -39 -6 -5 -6 -8 -3 -8 8 0 9 7 17 16 17 8 0 12 5 9
10 -4 6 -11 7 -17 4 -7 -4 -8 -2 -4 5 4 6 12 9 17 6 5 -4 9 -1 9 4 0 6 -5 11
-11 11 -7 0 -18 8 -26 18 -8 10 -11 11 -7 2 7 -12 5 -13 -8 -3 -8 7 -19 9 -23
5 -5 -4 -6 -2 -3 3 5 9 -36 252 -44 260 -1 1 -35 6 -74 10 -70 7 -71 6 -118
-29 -26 -21 -52 -34 -59 -30 -7 4 -9 4 -5 -1 9 -9 -23 -36 -34 -29 -5 3 -8 11
-8 17 0 8 3 8 9 -1 6 -11 9 -9 13 6 5 16 -1 21 -25 26 -17 3 -27 9 -24 13 4 3
-6 17 -21 31 -15 14 -27 33 -27 41 0 11 -8 15 -23 14 -13 -2 -21 1 -18 6 3 5
-8 14 -24 20 -22 7 -30 7 -30 -1 0 -6 -3 -8 -7 -4 -5 4 -8 12 -8 16 0 5 -27
23 -60 41 -122 65 -203 126 -310 233 -89 90 -123 132 -178 226 -112 191 -168
398 -168 628 -1 253 46 423 173 640 28 48 63 102 77 119 14 18 26 39 26 45 1
7 6 12 13 11 6 -2 16 6 22 17 7 14 7 20 0 20 -5 0 -10 -4 -10 -9z m-976 -187
c3 -8 2 -12 -4 -9 -6 3 -10 10 -10 16 0 14 7 11 14 -7z m1429 -1824 c3 -11 1
-20 -4 -20 -5 0 -9 9 -9 20 0 11 2 20 4 20 2 0 6 -9 9 -20z m37 -35 c0 -14 -4
-25 -9 -25 -4 0 -6 11 -3 25 2 14 6 25 8 25 2 0 4 -11 4 -25z m480 -325 c0 -5
-5 -10 -11 -10 -5 0 -7 5 -4 10 3 6 8 10 11 10 2 0 4 -4 4 -10z"/>
<path d="M35 2660 c3 -5 10 -10 16 -10 5 0 9 5 9 10 0 6 -7 10 -16 10 -8 0
-12 -4 -9 -10z"/>
<path d="M2169 498 c9 -12 10 -18 3 -18 -6 0 -9 -7 -6 -15 4 -8 9 -15 13 -15
13 0 5 40 -9 53 -12 10 -12 9 -1 -5z"/>
<path d="M2120 439 c6 -10 13 -19 16 -19 3 0 2 5 -1 10 -3 6 -1 10 6 10 16 0
3 13 -16 16 -12 2 -12 -2 -5 -17z"/>
<path d="M2210 389 c0 -5 5 -7 10 -4 6 3 10 8 10 11 0 2 -4 4 -10 4 -5 0 -10
-5 -10 -11z"/>
<path d="M2180 366 c0 -2 7 -6 15 -10 8 -3 15 -1 15 4 0 6 -7 10 -15 10 -8 0
-15 -2 -15 -4z"/>
</g>
</svg>
